# xmcd CD database file
#
# Track frame offsets:
#	150
#	15448
#	31796
#	50924
#	68107
#	87876
#	102212
#	119532
#	136444
#	151689
#	169879
#	187877
#
# Disc length: 2677 seconds
#
# Revision: 0
# Processed by: cddbd v1.5.2PL0 Copyright (c) Steve Scherf et al.
# Submitted via: CDex 1.70beta2
#
DISCID=940a730c
DTITLE=The McClymonts - Chaos And Bright Lights
DYEAR=2007
DGENRE=Country
TTITLE0=My Life Again
TTITLE1=Save Yourself
TTITLE2=Don't Tie My Hands
TTITLE3=Good Cry
TTITLE4=Settle Down
TTITLE5=Way Too Late
TTITLE6=You Were Right
TTITLE7=Shotgun
TTITLE8=Favourite Boyfriend Of The Year
TTITLE9=Finally Over Blue
TTITLE10=Til You Love Me
TTITLE11=Ghost Town
EXTD=YEAR: 2007
EXTT0=
EXTT1=
EXTT2=
EXTT3=
EXTT4=
EXTT5=
EXTT6=
EXTT7=
EXTT8=
EXTT9=
EXTT10=
EXTT11=
PLAYORDER=
